<svg width="200" height="99" viewBox="0 0 200 99" fill="none" xmlns="http://www.w3.org/2000/svg">
<g clip-path="url(#clip0_5790_17158)">
<path fill-rule="evenodd" clip-rule="evenodd" d="M63.9805 39.2676C63.9805 44.7275 64.9283 49.6775 66.9129 54.5675C69.1937 60.2674 73.6961 66.4774 78.6427 70.3173C81.5752 72.5973 84.4484 74.5173 87.8548 75.9573C98.5775 80.4573 110.011 80.6373 120.734 75.9573C122.926 74.9973 125.118 73.7673 127.102 72.4173C130.272 70.2873 132.523 68.1274 134.952 65.3974C135.811 64.4374 136.344 63.6874 137.173 62.6374C138.24 61.2574 140.076 58.0774 140.876 56.4274L142.298 52.8575C145.734 42.4475 145.289 32.9976 140.846 23.0077C137.943 16.4977 132.671 10.7978 127.073 6.95778C123.163 4.2878 121.208 3.6278 117.15 2.06782C115.817 1.55782 114.602 1.37782 113.24 0.987823C110.811 0.327827 107.019 -0.0321701 104.235 -0.00217034C97.8074 0.0578292 92.7718 1.31782 87.8844 3.44781C84.4484 4.9178 82.9377 6.05779 80.0645 7.97778C79.0278 8.63777 76.9247 10.5578 76.0065 11.3978C73.8146 13.3777 70.9117 17.2477 69.4603 19.7377C66.1724 25.3477 63.9805 31.9776 63.9805 39.2676Z" fill="#DACE00"/>
<path fill-rule="evenodd" clip-rule="evenodd" d="M74.6462 19.4115L74.7646 19.5015C74.7943 19.5015 74.8535 19.5615 74.8831 19.5915C74.9127 19.5915 75.1793 19.7415 75.2089 19.7715C75.3867 19.8615 75.6236 19.9215 75.8902 20.0115L80.0075 21.3315C81.1331 21.7215 84.5987 22.8915 85.3096 23.3715C85.4577 25.4415 83.2362 39.0614 82.3475 41.4914L80.6888 46.8913C79.5632 46.8913 68.6628 43.3814 68.5443 43.3814C68.4258 44.9414 69.4921 49.1413 69.9661 50.5513C72.0099 56.6713 75.5052 62.4312 80.1852 66.4812C83.2065 69.0612 86.4945 71.4312 90.9079 73.1712C95.3214 74.9412 100.09 75.9011 105.659 75.7511C115.908 75.4811 124.468 70.6812 129.889 65.2512C134.45 60.6913 137.649 55.2313 139.397 48.6013C139.723 47.3713 139.901 46.1714 140.138 44.9414C140.345 43.6514 140.641 42.3314 140.582 40.9814C139.693 41.0414 135.487 44.2514 134.836 44.3714L131.992 40.0214C130.185 37.1414 128.408 33.8114 126.631 30.9915C126.186 30.3015 123.876 26.9415 123.787 26.6415C125.031 25.5015 132.495 21.7815 134.421 20.6115L134.776 20.3115C134.51 19.1415 130.659 14.9116 129.622 13.8916C118.129 2.82166 100.801 0.301675 86.7018 8.25162C84.1248 9.72161 82.2291 11.1316 80.0075 13.1116C78.8819 14.1316 75.0016 18.2116 74.6462 19.4115Z" fill="white"/>
<path fill-rule="evenodd" clip-rule="evenodd" d="M141.109 72.3583C141.494 72.5983 142.146 72.6283 142.679 72.6283L174.788 72.5983C178.52 72.5983 181.068 72.5083 184.948 71.1883C187.022 70.4983 186.34 70.7383 188.236 69.8083C191.139 68.3983 193.686 65.6683 195.226 62.8183C197.537 58.4983 197.33 55.8884 197.33 51.6284C197.33 49.9784 196.767 48.1784 196.204 46.8584C195.138 44.4884 192.59 42.1185 190.28 41.0085C188.828 40.3185 189.125 40.2585 187.377 39.5985L186.577 39.2685C186.37 39.1185 186.459 39.1785 186.34 39.0585C187.229 38.7885 188.177 38.7585 189.095 38.4585C189.954 38.1585 190.783 37.7985 191.524 37.4985C193.449 36.7185 196.085 34.8285 197.27 33.0885C197.715 32.4285 198.129 31.7985 198.603 30.9585C200.173 28.0786 199.995 25.2886 199.995 22.1686C199.995 19.6786 198.899 17.2486 198.011 15.4486C197.093 13.6787 195.493 12.0887 193.864 10.8887C190.843 8.63869 187.673 8.2787 184 7.8287C182.371 7.6187 159.267 7.7687 158.289 7.7687L153.165 7.7387C152.039 7.7087 151.773 7.6187 151.595 8.66869C151.358 10.1687 151.21 11.5187 150.943 12.9887C150.44 15.7486 150.025 18.6286 149.492 21.4186C149.225 22.8286 149.107 24.2086 148.84 25.6486C148.603 26.9986 148.278 28.5586 148.129 29.9085C147.922 31.4985 147.596 32.6685 147.419 34.1685C147.241 35.6385 146.945 37.0485 146.678 38.4585C146.441 39.8385 146.234 41.3385 146.056 42.7185C145.967 43.3785 145.76 44.1284 145.641 44.7584L143.923 55.4384C143.538 57.2384 143.272 59.6083 142.887 61.6783C142.739 62.3983 142.679 63.1783 142.561 63.8983C142.116 66.0283 141.85 68.2783 141.494 70.2583C141.406 70.7083 141.109 72.0283 141.109 72.3583ZM160.689 60.9583C165.102 60.9583 172.27 61.2283 175.943 60.1183C178.165 59.4583 179.794 57.5984 180.179 57.0584C181.601 55.6184 181.779 53.0984 181.512 50.9984C180.92 46.1984 176.417 44.9684 171.885 44.9384L162.199 44.9084C160.718 44.9084 160.689 44.6684 160.481 46.1084L158.882 56.0684C158.734 56.9384 157.934 60.5383 158.023 60.9883L160.689 60.9583ZM162.496 33.6285C164.184 33.9285 167.324 33.7485 169.249 33.7485C171.589 33.7185 173.633 33.5685 176.003 33.5385C178.046 33.5385 180.09 33.1485 181.453 32.0685C182.49 31.2285 182.49 31.1685 183.112 30.1785C184.8 27.6286 184.563 23.8186 183.112 21.8686C180.475 18.3886 176.328 18.9286 172.182 18.9286H165.132C164.658 19.8286 163.562 28.0186 163.147 29.8185C162.881 30.9585 162.881 31.7685 162.703 32.6385C162.644 32.9985 162.525 33.1785 162.496 33.6285Z" fill="white"/>
<path fill-rule="evenodd" clip-rule="evenodd" d="M7.9422 72.4819C7.97182 72.572 8.00144 72.602 8.38651 72.602C10.1638 72.6619 14.4884 72.632 15.5547 72.602L21.8343 72.542C21.9528 72.542 22.0713 72.422 22.1305 72.332L25.922 49.2621C26.0405 48.6021 26.3367 46.3521 26.4255 45.8721C26.4552 45.8421 27.0476 45.8721 27.1364 45.8721H46.8046C45.7975 54.1521 44.2276 61.832 42.9539 69.872C42.3911 73.0519 42.2726 72.632 45.057 72.632L56.7868 72.572C57.0238 72.572 57.1126 72.452 57.1126 72.272C57.1423 71.612 57.1423 70.982 57.2015 70.082L63.0368 35.7322L67.5688 7.74241L53.647 7.77241C53.41 7.77241 53.3212 7.83241 53.3212 7.92241L49.0854 33.1522C48.8484 33.3922 32.3201 33.2122 30.6613 33.2422L28.7063 33.3322C28.5582 32.1322 29.3876 28.3523 29.595 27.0023C29.9208 24.9323 30.217 22.5923 30.6613 20.6123C30.9279 19.3823 32.7644 8.37241 32.6459 7.80241C29.121 7.77241 23.1969 7.86241 19.9978 7.77241C19.4351 7.77241 18.9315 7.65242 18.6353 7.86241C18.4872 7.92241 18.3983 8.04241 18.3391 8.25241L17.332 14.4624C16.858 17.2523 16.3841 19.8623 15.9398 22.7423C15.0808 28.2623 14.0145 33.7222 13.2443 39.2722L11.8818 47.4621C11.4078 50.2521 10.9635 52.9521 10.4896 55.7721C10.0453 58.4721 9.6602 61.352 9.15665 64.082C8.91968 65.312 7.73485 71.702 7.9422 72.4819Z" fill="white"/>
<path fill-rule="evenodd" clip-rule="evenodd" d="M94.6068 50.97C95.1104 50.91 95.0215 50.49 96.3841 50.58C99.3758 50.79 99.4054 53.73 99.6127 54.27C100.176 54.21 100.531 53.79 101.42 54.15C102.901 54.75 103.937 56.22 104.885 57.39C105.389 58.02 106.751 58.77 107.966 58.71C109.002 58.65 110.543 57.66 110.661 56.91C110.01 56.4 109.21 55.98 108.44 55.5C107.373 54.81 104.944 53.19 103.908 52.68C103.463 52.44 103.108 52.26 102.664 52.08C102.101 51.84 101.538 51.9 101.657 51.27C103.493 51.03 111.52 57.18 112.824 57.48C114.838 57.99 115.963 55.5 115.963 54.87C115.223 54.18 114.097 53.43 113.238 52.77C111.194 51.21 108.38 48.2701 105.833 46.8301C105.478 46.6201 105.241 46.6501 105.3 46.1401C106.425 45.8101 111.876 50.88 112.646 51.57C113.594 52.44 115.223 53.58 116.23 54.33C117.326 55.17 119.696 55.83 120.347 53.46C121.088 50.79 116.734 47.4001 115.075 46.0501C113.801 45.0001 112.794 44.0401 111.787 42.9601C111.491 42.6601 108.914 39.6601 109.299 39.2101C109.684 38.8201 109.95 39.6601 110.602 40.5901C111.905 42.4201 113.209 43.7401 114.986 45.2101C117.237 47.1001 119.399 48.6301 120.703 51.45C121.147 52.41 121.177 52.47 122.213 52.89C126.271 54.48 127.071 49.38 122.48 44.8801C121.591 44.0101 120.614 42.7501 119.666 41.7001C117.8 39.5701 115.697 37.7101 113.594 35.8201C112.972 35.2501 112.794 34.8601 112.231 34.2602C111.757 33.7502 111.194 33.2402 110.661 32.7902C107.788 30.2702 106.662 29.7302 102.723 28.8002C100.087 28.1702 101.657 29.2202 98.2798 29.9102C96.2656 30.3002 92.563 30.3602 91.2893 28.4402C90.7561 27.6002 90.8154 27.0902 90.7857 25.9202C89.8971 25.8302 89.0677 25.7402 88.1199 25.6802C87.2609 25.6502 86.4019 25.1402 85.7502 25.2002C85.4244 28.7402 84.1803 36.8101 83.2324 40.5301C83.0843 41.1601 82.6104 42.0301 82.9362 42.5101C84.9505 45.6601 86.7277 46.8301 89.6305 48.4501C90.1341 48.7501 90.0156 48.7201 90.5784 48.6001C92.6222 48.1801 93.6589 49.26 94.6068 50.97Z" fill="#DACE00"/>
<path fill-rule="evenodd" clip-rule="evenodd" d="M125.033 47.2803C125.744 47.1603 126.425 46.5903 127.077 46.2003C128.646 45.3003 131.846 43.8303 132.912 42.6603C132.823 42.2103 131.135 39.7203 130.779 39.1203C129.713 37.3203 124.974 28.9804 124.263 28.5604C123.641 28.8304 123.463 29.2204 122.071 29.5204C119.286 30.0904 117.035 28.1104 115.317 26.8504C112.799 24.9904 109.452 24.1504 105.927 23.5204C104.061 23.1904 102.343 22.6204 100.27 22.9204C98.4629 23.1904 97.7817 24.5704 96.0933 25.1404C95.0862 25.4704 93.072 25.4704 91.8575 25.6204C91.2355 25.6804 91.3243 26.0704 91.354 26.7304C91.5613 30.5104 98.0779 29.8504 100.211 28.5904C101.484 27.8404 100.744 27.8104 102.521 28.1704C103.439 28.3804 104.239 28.5904 105.098 28.8304C107.171 29.4004 107.675 29.7904 109.304 30.9904C112.681 33.4204 112.414 33.9004 114.221 35.6103C118.161 39.2403 118.516 39.4803 122.16 43.6803C123.019 44.6703 124.381 45.9003 125.033 47.2803Z" fill="#DACE00"/>
<path fill-rule="evenodd" clip-rule="evenodd" d="M95.5876 51.1788C94.7878 51.4488 94.6101 51.7788 94.4027 52.6488C94.2842 53.2188 93.9288 54.4788 94.0473 54.8988C94.462 56.2188 95.8838 56.7888 97.4833 56.8188C98.6681 56.8188 98.6385 56.6088 98.8458 55.5288C99.5567 52.2288 97.1575 50.6689 95.5876 51.1788Z" fill="#DACE00"/>
<path fill-rule="evenodd" clip-rule="evenodd" d="M90.7565 49.1703C88.0611 50.0403 88.8904 54.0903 92.6523 54.3903C93.6298 54.4503 93.4224 54.5103 93.7779 52.9803C93.9556 52.2603 94.2518 51.4803 93.926 50.8503C93.4817 49.9803 92.208 48.6903 90.7565 49.1703Z" fill="#DACE00"/>
<path fill-rule="evenodd" clip-rule="evenodd" d="M100.238 54.6925C97.8094 56.3425 101.245 60.0625 103.556 58.7725C103.704 58.6825 104.03 58.4125 104.178 58.2925C104.77 57.7525 104.178 57.2425 103.23 56.2225C102.786 55.7425 101.157 54.0325 100.238 54.6925Z" fill="#DACE00"/>
<path fill-rule="evenodd" clip-rule="evenodd" d="M88.5393 51.1206C88.8651 49.9506 89.3095 49.3207 89.3687 48.9307C86.999 47.7607 86.3474 46.7107 85.6069 48.2407C84.7479 49.9806 86.7621 51.2106 88.5393 51.1206Z" fill="#DACE00"/>
</g>
<defs>
<clipPath id="clip0_5790_17158">
<rect width="200" height="98.4293" fill="white"/>
</clipPath>
</defs>
</svg>
