<svg width="345" height="170" viewBox="0 0 345 170" fill="none" xmlns="http://www.w3.org/2000/svg">
<g clip-path="url(#clip0_5430_37204)">
<path fill-rule="evenodd" clip-rule="evenodd" d="M110.367 67.821C110.367 77.251 112.002 85.8003 115.426 94.2459C119.36 104.09 127.127 114.816 135.66 121.448C140.718 125.386 145.674 128.702 151.55 131.189C170.047 138.961 189.77 139.272 208.267 131.189C212.048 129.531 215.829 127.406 219.252 125.075C224.72 121.396 228.603 117.666 232.793 112.951C234.274 111.292 235.194 109.997 236.625 108.184C238.464 105.8 241.632 100.308 243.012 97.4583L245.464 91.2925C251.392 73.3132 250.625 56.992 242.961 39.7381C237.953 28.4946 228.858 18.65 219.201 12.0179C212.457 7.40647 209.084 6.26657 202.084 3.57227C199.785 2.69144 197.69 2.38056 195.339 1.70698C191.15 0.567087 184.609 -0.0546747 179.806 -0.00286123C168.719 0.100766 160.032 2.27693 151.601 5.95569C145.674 8.49455 143.068 10.4635 138.112 13.7795C136.324 14.9194 132.696 18.2355 131.112 19.6863C127.331 23.1059 122.324 29.7899 119.82 34.0904C114.148 43.7795 110.367 55.2303 110.367 67.821Z" fill="#DACE00"/>
<path fill-rule="evenodd" clip-rule="evenodd" d="M128.764 33.5258L128.969 33.6813C129.02 33.6813 129.122 33.7849 129.173 33.8367C129.224 33.8367 129.684 34.0958 129.735 34.1476C130.042 34.303 130.45 34.4067 130.91 34.5621L138.012 36.8419C139.954 37.5155 145.932 39.5362 147.159 40.3652C147.414 43.9404 143.582 67.4637 142.049 71.6606L139.188 80.987C137.246 80.987 118.443 74.9248 118.238 74.9248C118.034 77.6191 119.873 84.873 120.691 87.3082C124.217 97.8782 130.246 107.826 138.319 114.821C143.531 119.277 149.202 123.37 156.816 126.376C164.429 129.433 172.655 131.091 182.261 130.832C199.941 130.365 214.707 122.075 224.058 112.697C231.927 104.821 237.445 95.3911 240.46 83.9403C241.022 81.816 241.328 79.7435 241.737 77.6191C242.095 75.3911 242.606 73.1113 242.503 70.7797C240.97 70.8834 233.715 76.4274 232.591 76.6347L227.686 69.1217C224.569 64.1476 221.503 58.3963 218.437 53.5258C217.671 52.3341 213.685 46.531 213.532 46.0129C215.678 44.044 228.554 37.6191 231.875 35.5984L232.489 35.0803C232.029 33.0595 225.386 25.7538 223.598 23.9922C203.773 4.873 173.882 0.520667 149.56 14.2512C145.115 16.7901 141.845 19.2253 138.012 22.645C136.071 24.4067 129.377 31.4533 128.764 33.5258Z" fill="white"/>
<path fill-rule="evenodd" clip-rule="evenodd" d="M243.414 124.972C244.078 125.387 245.202 125.438 246.122 125.438L301.51 125.387C307.948 125.387 312.342 125.231 319.036 122.951C322.613 121.76 321.437 122.174 324.707 120.568C329.715 118.133 334.109 113.418 336.766 108.495C340.752 101.034 340.394 96.5266 340.394 89.1691C340.394 86.3193 339.423 83.2105 338.452 80.9307C336.613 76.8375 332.219 72.7442 328.233 70.8271C325.729 69.6354 326.24 69.5318 323.226 68.3919L321.846 67.8219C321.488 67.5628 321.642 67.6665 321.437 67.4592C322.97 66.9929 324.605 66.9411 326.189 66.4229C327.671 65.9048 329.102 65.283 330.379 64.7649C333.7 63.4178 338.248 60.1535 340.292 57.1483C341.058 56.0084 341.773 54.9204 342.591 53.4696C345.299 48.4955 344.992 43.6768 344.992 38.2882C344.992 33.9877 343.102 29.7908 341.569 26.682C339.985 23.625 337.226 20.8789 334.416 18.8064C329.204 14.9204 323.737 14.2986 317.401 13.5214C314.59 13.1587 274.736 13.4178 273.05 13.4178L264.21 13.366C262.268 13.3141 261.809 13.1587 261.502 14.9722C261.093 17.5628 260.838 19.8945 260.378 22.4333C259.509 27.2002 258.794 32.1742 257.874 36.9929C257.414 39.4281 257.21 41.8115 256.75 44.2986C256.341 46.6302 255.779 49.3245 255.524 51.6561C255.166 54.4022 254.604 56.4229 254.297 59.0136C253.991 61.5525 253.48 63.9877 253.02 66.4229C252.611 68.8064 252.254 71.397 251.947 73.7805C251.794 74.9204 251.436 76.2157 251.232 77.3038L248.268 95.7494C247.604 98.8582 247.144 102.951 246.48 106.527C246.224 107.77 246.122 109.117 245.918 110.361C245.151 114.04 244.691 117.926 244.078 121.345C243.925 122.122 243.414 124.402 243.414 124.972ZM277.188 105.283C284.802 105.283 297.167 105.749 303.503 103.832C307.335 102.692 310.145 99.4799 310.809 98.5473C313.262 96.0602 313.569 91.7079 313.109 88.081C312.087 79.7908 304.32 77.6665 296.503 77.6147L279.794 77.5628C277.239 77.5628 277.188 77.1483 276.831 79.6354L274.072 96.8375C273.816 98.34 272.436 104.558 272.59 105.335L277.188 105.283ZM280.305 58.081C283.218 58.5991 288.634 58.2882 291.955 58.2882C295.992 58.2364 299.517 57.9774 303.605 57.9255C307.131 57.9255 310.656 57.252 313.007 55.3867C314.795 53.9359 314.795 53.8323 315.868 52.1224C318.78 47.7183 318.372 41.138 315.868 37.7701C311.32 31.7597 304.167 32.6924 297.014 32.6924H284.853C284.035 34.2468 282.145 48.3919 281.429 51.5007C280.969 53.4696 280.969 54.8685 280.663 56.3711C280.561 56.9929 280.356 57.3038 280.305 58.081Z" fill="white"/>
<path fill-rule="evenodd" clip-rule="evenodd" d="M13.7 125.186C13.7511 125.341 13.8022 125.393 14.4664 125.393C17.5322 125.497 24.9922 125.445 26.8316 125.393L37.6639 125.289C37.8683 125.289 38.0727 125.082 38.1749 124.927L44.7151 85.0822C44.9195 83.9423 45.4305 80.0563 45.5838 79.2273C45.6349 79.1755 46.6568 79.2273 46.8101 79.2273H80.7377C79.0004 93.5278 76.2923 106.792 74.0952 120.678C73.1244 126.17 72.92 125.445 77.723 125.445L97.957 125.341C98.3657 125.341 98.519 125.134 98.519 124.823C98.5701 123.683 98.5701 122.595 98.6723 121.041L108.738 61.7143L116.556 13.3724L92.5408 13.4242C92.132 13.4242 91.9788 13.5278 91.9788 13.6833L84.6721 57.2584C84.2633 57.6729 55.7518 57.362 52.8905 57.4138L49.5182 57.5693C49.2627 55.4967 50.6934 48.9682 51.051 46.6366C51.6131 43.0615 52.124 39.02 52.8905 35.6003C53.3503 33.476 56.5183 14.4605 56.3139 13.476C50.2335 13.4242 40.0143 13.5796 34.496 13.4242C33.5252 13.4242 32.6565 13.2169 32.1456 13.5796C31.8901 13.6833 31.7368 13.8905 31.6346 14.2532L29.8974 24.9786C29.0798 29.7972 28.2623 34.305 27.4959 39.2791C26.0141 48.8128 24.1746 58.2428 22.8461 67.8283L20.4957 81.9734C19.6782 86.792 18.9118 91.4553 18.0942 96.3257C17.3278 100.989 16.6636 105.963 15.7949 110.678C15.3862 112.802 13.3423 123.839 13.7 125.186Z" fill="white"/>
<path fill-rule="evenodd" clip-rule="evenodd" d="M163.196 88.0319C164.065 87.9282 163.911 87.2028 166.262 87.3583C171.422 87.721 171.474 92.7987 171.831 93.7313C172.802 93.6277 173.415 92.9023 174.948 93.5241C177.503 94.5604 179.291 97.0992 180.926 99.1199C181.795 100.208 184.145 101.503 186.24 101.4C188.029 101.296 190.686 99.5863 190.89 98.2909C189.766 97.4101 188.386 96.6847 187.058 95.8557C185.218 94.664 181.028 91.8661 179.24 90.9852C178.474 90.5707 177.861 90.2598 177.094 89.949C176.123 89.5345 175.152 89.6381 175.357 88.55C178.525 88.1355 192.372 98.7573 194.62 99.2754C198.094 100.156 200.036 95.8557 200.036 94.7676C198.759 93.5759 196.817 92.2806 195.335 91.1407C191.81 88.4464 186.956 83.3687 182.561 80.8816C181.948 80.5189 181.539 80.5707 181.642 79.6899C183.583 79.1199 192.985 87.8764 194.313 89.0681C195.948 90.5707 198.759 92.5396 200.496 93.835C202.387 95.2857 206.474 96.4256 207.598 92.3324C208.876 87.721 201.365 81.8661 198.503 79.5345C196.306 77.721 194.569 76.063 192.832 74.1977C192.321 73.6795 187.875 68.4982 188.54 67.721C189.204 67.0474 189.664 68.4982 190.788 70.1044C193.036 73.265 195.284 75.5448 198.35 78.0837C202.233 81.3479 205.963 83.9904 208.211 88.8609C208.978 90.5189 209.029 90.6225 210.817 91.3479C217.817 94.094 219.197 85.2857 211.277 77.5137C209.744 76.0111 208.058 73.835 206.423 72.0215C203.204 68.3427 199.576 65.1303 195.948 61.8661C194.875 60.8816 194.569 60.208 193.598 59.1718C192.781 58.2909 191.81 57.4101 190.89 56.6329C185.934 52.2806 183.992 51.3479 177.196 49.7417C172.649 48.6536 175.357 50.4671 169.532 51.6588C166.057 52.3324 159.67 52.436 157.473 49.1199C156.554 47.6692 156.656 46.7883 156.605 44.7676C155.072 44.6122 153.641 44.4567 152.006 44.3531C150.524 44.3013 149.043 43.4205 147.918 43.5241C147.356 49.6381 145.21 63.5759 143.575 70.0008C143.32 71.0889 142.502 72.5914 143.064 73.4205C146.539 78.8609 149.605 80.8816 154.612 83.6795C155.481 84.1977 155.276 84.1459 156.247 83.9386C159.773 83.2132 161.561 85.0785 163.196 88.0319Z" fill="#DACE00"/>
<path fill-rule="evenodd" clip-rule="evenodd" d="M215.681 81.6599C216.907 81.4526 218.082 80.4682 219.206 79.7946C221.914 78.2402 227.433 75.7013 229.272 73.6806C229.119 72.9034 226.206 68.6029 225.593 67.5666C223.754 64.4578 215.578 50.0537 214.352 49.3283C213.279 49.7946 212.973 50.4682 210.571 50.9863C205.768 51.9708 201.885 48.5511 198.921 46.3749C194.578 43.1625 188.804 41.7117 182.724 40.6236C179.505 40.0537 176.541 39.0692 172.965 39.5873C169.848 40.0537 168.673 42.4371 165.76 43.4215C164.023 43.9915 160.548 43.9915 158.453 44.2506C157.38 44.3542 157.534 45.0278 157.585 46.1676C157.942 52.6961 169.183 51.5562 172.862 49.3801C175.059 48.0847 173.782 48.0329 176.848 48.6547C178.432 49.0174 179.811 49.3801 181.293 49.7946C184.87 50.779 185.738 51.4526 188.549 53.5252C194.374 57.7221 193.914 58.5511 197.031 61.5044C203.826 67.7739 204.44 68.1884 210.724 75.4423C212.206 77.1521 214.557 79.2765 215.681 81.6599Z" fill="#DACE00"/>
<path fill-rule="evenodd" clip-rule="evenodd" d="M164.89 88.3924C163.51 88.8587 163.203 89.4286 162.846 90.9312C162.641 91.9157 162.028 94.0918 162.233 94.8172C162.948 97.097 165.4 98.0815 168.16 98.1333C170.203 98.1333 170.152 97.7706 170.51 95.9053C171.736 90.2058 167.598 87.5115 164.89 88.3924Z" fill="#DACE00"/>
<path fill-rule="evenodd" clip-rule="evenodd" d="M156.555 84.9236C151.905 86.4262 153.336 93.421 159.825 93.9392C161.511 94.0428 161.154 94.1464 161.767 91.5039C162.073 90.2604 162.584 88.9133 162.022 87.8252C161.256 86.3226 159.059 84.0946 156.555 84.9236Z" fill="#DACE00"/>
<path fill-rule="evenodd" clip-rule="evenodd" d="M172.912 94.4614C168.722 97.3111 174.649 103.736 178.635 101.508C178.89 101.353 179.452 100.886 179.708 100.679C180.729 99.7464 179.708 98.8656 178.073 97.1039C177.306 96.2749 174.496 93.3215 172.912 94.4614Z" fill="#DACE00"/>
<path fill-rule="evenodd" clip-rule="evenodd" d="M152.73 88.2918C153.292 86.2711 154.058 85.183 154.16 84.5095C150.073 82.4887 148.949 80.6753 147.671 83.3177C146.189 86.3229 149.664 88.4473 152.73 88.2918Z" fill="#DACE00"/>
</g>
<defs>
<clipPath id="clip0_5430_37204">
<rect width="345" height="170" fill="white"/>
</clipPath>
</defs>
</svg>
