<svg width="121" height="60" viewBox="0 0 121 60" fill="none" xmlns="http://www.w3.org/2000/svg">
<g clip-path="url(#clip0_5211_19949)">
<path fill-rule="evenodd" clip-rule="evenodd" d="M38.4727 23.6129C38.4727 26.896 39.0426 29.8724 40.2359 32.8127C41.6074 36.2401 44.3146 39.9741 47.2891 42.2831C49.0523 43.654 50.78 44.8085 52.8282 45.6744C59.2758 48.3802 66.1508 48.4884 72.5983 45.6744C73.9164 45.0971 75.2344 44.3575 76.4277 43.5458C78.3335 42.265 79.6871 40.9662 81.1476 39.3247C81.6641 38.7475 81.9847 38.2965 82.4834 37.6651C83.1246 36.8354 84.2289 34.9232 84.7098 33.9311L85.5647 31.7845C87.6307 25.525 87.3636 19.8428 84.692 13.8358C82.9465 9.92142 79.7761 6.49404 76.4099 4.18507C74.0588 2.57962 72.8833 2.18277 70.4432 1.24475C69.6417 0.938086 68.9115 0.829853 68.0922 0.595349C66.6317 0.198494 64.3519 -0.0179716 62.6777 6.72387e-05C58.8127 0.0361449 55.7849 0.793776 52.8461 2.07453C50.78 2.95843 49.8716 3.64391 48.144 4.7984C47.5206 5.19525 46.256 6.34973 45.7039 6.85482C44.3859 8.04538 42.6404 10.3724 41.7677 11.8696C39.7907 15.2429 38.4727 19.2295 38.4727 23.6129Z" fill="#DACE00"/>
<path fill-rule="evenodd" clip-rule="evenodd" d="M44.8855 11.6713L44.9567 11.7255C44.9745 11.7255 45.0101 11.7615 45.028 11.7796C45.0458 11.7796 45.2061 11.8698 45.2239 11.8878C45.3307 11.9419 45.4732 11.978 45.6335 12.0321L48.1092 12.8258C48.7861 13.0603 50.8699 13.7638 51.2974 14.0525C51.3864 15.2971 50.0506 23.4868 49.5163 24.9479L48.5189 28.1949C47.8421 28.1949 41.2877 26.0844 41.2164 26.0844C41.1452 27.0224 41.7864 29.5478 42.0713 30.3956C43.3003 34.0756 45.402 37.539 48.2161 39.9743C50.0328 41.5256 52.0098 42.9507 54.6637 43.9969C57.3175 45.0612 60.185 45.6384 63.5335 45.5483C69.6961 45.3859 74.8434 42.4997 78.1028 39.2347C80.8457 36.4928 82.7693 33.2097 83.8201 29.2231C84.016 28.4835 84.1229 27.762 84.2654 27.0224C84.39 26.2467 84.5682 25.453 84.5325 24.6413C83.9982 24.6773 81.4691 26.6075 81.0772 26.6796L79.3674 24.064C78.2809 22.3323 77.2123 20.33 76.1436 18.6343C75.8764 18.2194 74.4872 16.1991 74.4338 16.0187C75.1818 15.3332 79.6702 13.0964 80.8279 12.3929L81.0416 12.2125C80.8813 11.509 78.5659 8.96552 77.9425 8.3522C71.0319 1.69587 60.6125 0.180612 52.1345 4.9609C50.585 5.8448 49.4451 6.69263 48.1092 7.88319C47.4324 8.49651 45.0992 10.9498 44.8855 11.6713Z" fill="white"/>
<path fill-rule="evenodd" clip-rule="evenodd" d="M84.8516 43.5094C85.0831 43.6537 85.4749 43.6718 85.7955 43.6718L105.103 43.6537C107.347 43.6537 108.878 43.5996 111.212 42.8059C112.458 42.391 112.049 42.5353 113.189 41.9761C114.934 41.1283 116.466 39.4868 117.392 37.7731C118.781 35.1755 118.657 33.6061 118.657 31.0446C118.657 30.0525 118.318 28.9701 117.98 28.1764C117.339 26.7514 115.807 25.3263 114.418 24.6588C113.545 24.244 113.723 24.2079 112.672 23.811L112.191 23.6126C112.067 23.5224 112.12 23.5585 112.049 23.4863C112.583 23.324 113.153 23.3059 113.705 23.1255C114.222 22.9452 114.72 22.7287 115.166 22.5483C116.323 22.0793 117.909 20.9429 118.621 19.8966C118.888 19.4997 119.138 19.1209 119.423 18.6158C120.367 16.8841 120.26 15.2065 120.26 13.3305C120.26 11.8332 119.601 10.3721 119.066 9.28977C118.514 8.22548 117.552 7.26942 116.573 6.54787C114.756 5.19496 112.85 4.97849 110.642 4.70791C109.662 4.58164 95.7696 4.67183 95.1819 4.67183L92.1006 4.6538C91.4238 4.63576 91.2635 4.58164 91.1566 5.213C91.0141 6.11494 90.9251 6.92669 90.7648 7.81059C90.462 9.47016 90.2126 11.2019 89.892 12.8795C89.7318 13.7273 89.6605 14.5571 89.5002 15.423C89.3577 16.2347 89.1618 17.1727 89.0727 17.9845C88.9481 18.9405 88.7522 19.6441 88.6453 20.546C88.5384 21.4299 88.3603 22.2777 88.2 23.1255C88.0575 23.9553 87.9328 24.8573 87.826 25.6871C87.7726 26.0839 87.6479 26.5349 87.5766 26.9137L86.5436 33.3355C86.3121 34.4179 86.1518 35.8429 85.9202 37.0876C85.8312 37.5205 85.7955 37.9895 85.7243 38.4225C85.4571 39.7032 85.2968 41.0561 85.0831 42.2467C85.0297 42.5173 84.8516 43.311 84.8516 43.5094ZM96.6246 36.6547C99.2784 36.6547 103.589 36.817 105.797 36.1496C107.133 35.7527 108.113 34.6343 108.344 34.3096C109.199 33.4438 109.306 31.9285 109.146 30.6658C108.789 27.7796 106.082 27.04 103.357 27.0219L97.5329 27.0039C96.6424 27.0039 96.6246 26.8596 96.4999 27.7254L95.5381 33.7143C95.449 34.2375 94.9682 36.4021 95.0216 36.6727L96.6246 36.6547ZM97.711 20.2213C98.7263 20.4017 100.614 20.2935 101.772 20.2935C103.179 20.2754 104.408 20.1852 105.833 20.1672C107.062 20.1672 108.291 19.9327 109.11 19.2833C109.733 18.7782 109.733 18.7421 110.107 18.1468C111.123 16.6135 110.98 14.3226 110.107 13.1501C108.522 11.0576 106.029 11.3823 103.535 11.3823H99.2962C99.0112 11.9234 98.3522 16.848 98.1029 17.9304C97.9426 18.6158 97.9426 19.1029 97.8357 19.626C97.8001 19.8425 97.7288 19.9507 97.711 20.2213Z" fill="white"/>
<path fill-rule="evenodd" clip-rule="evenodd" d="M4.77238 43.5816C4.79019 43.6357 4.808 43.6538 5.03955 43.6538C6.1082 43.6899 8.70859 43.6718 9.34979 43.6538L13.1257 43.6177C13.1969 43.6177 13.2682 43.5456 13.3038 43.4914L15.5836 29.6196C15.6548 29.2227 15.833 27.8698 15.8864 27.5812C15.9042 27.5632 16.2604 27.5812 16.3138 27.5812H28.1403C27.5347 32.5599 26.5907 37.1779 25.8249 42.0123C25.4865 43.9244 25.4152 43.6718 27.0894 43.6718L34.1426 43.6357C34.2851 43.6357 34.3385 43.5636 34.3385 43.4554C34.3563 43.0585 34.3563 42.6797 34.3919 42.1385L37.9007 21.4841L40.6257 4.65385L32.2546 4.67189C32.1121 4.67189 32.0587 4.70797 32.0587 4.76209L29.5117 19.9327C29.3692 20.077 19.4308 19.9688 18.4333 19.9869L17.2578 20.041C17.1688 19.3194 17.6675 17.0465 17.7922 16.2348C17.9881 14.9901 18.1662 13.5831 18.4333 12.3925C18.5936 11.6529 19.6979 5.03267 19.6267 4.68993C17.5072 4.67189 13.945 4.72601 12.0214 4.67189C11.683 4.67189 11.3802 4.59974 11.2021 4.72601C11.1131 4.76209 11.0596 4.83424 11.024 4.96051L10.4184 8.69455C10.1335 10.3722 9.84849 11.9415 9.58133 13.6733C9.06481 16.9924 8.42362 20.2755 7.96053 23.6127L7.14123 28.5373C6.85626 30.2149 6.5891 31.8384 6.30412 33.534C6.03696 35.1575 5.80542 36.8892 5.50263 38.5308C5.36014 39.2704 4.64771 43.1126 4.77238 43.5816Z" fill="white"/>
<path fill-rule="evenodd" clip-rule="evenodd" d="M56.8895 30.6477C57.1923 30.6116 57.1389 30.3591 57.9582 30.4132C59.7571 30.5395 59.7749 32.3073 59.8996 32.632C60.238 32.5959 60.4517 32.3434 60.986 32.5598C61.8766 32.9206 62.5 33.8045 63.0699 34.508C63.3727 34.8868 64.192 35.3378 64.9223 35.3017C65.5456 35.2656 66.4718 34.6704 66.5431 34.2194C66.1512 33.9127 65.6703 33.6602 65.2072 33.3716C64.566 32.9567 63.1055 31.9826 62.4822 31.6759C62.215 31.5316 62.0013 31.4234 61.7341 31.3151C61.3957 31.1708 61.0573 31.2069 61.1285 30.8281C62.2328 30.6838 67.0596 34.3817 67.8432 34.5621C69.0544 34.8688 69.7312 33.3716 69.7312 32.9928C69.2859 32.5779 68.6091 32.1269 68.0926 31.73C66.8636 30.792 65.1716 29.0242 63.6399 28.1584C63.4261 28.0321 63.2837 28.0501 63.3193 27.7435C63.9961 27.545 67.2733 30.5936 67.7364 31.0085C68.3063 31.5316 69.2859 32.2171 69.8915 32.6681C70.5505 33.1731 71.9754 33.57 72.3672 32.1449C72.8125 30.5395 70.1943 28.5011 69.1969 27.6893C68.431 27.058 67.8254 26.4807 67.2199 25.8313C67.0418 25.651 65.4922 23.8471 65.7237 23.5765C65.9553 23.342 66.1156 23.8471 66.5074 24.4063C67.2911 25.5066 68.0748 26.3004 69.1434 27.1843C70.4971 28.3207 71.7973 29.2407 72.5809 30.9363C72.8481 31.5136 72.8659 31.5497 73.4893 31.8022C75.9294 32.7583 76.4103 29.6917 73.6496 26.9858C73.1153 26.4627 72.5275 25.7051 71.9576 25.0737C70.8355 23.793 69.5709 22.6746 68.3063 21.5381C67.9323 21.1954 67.8254 20.9609 67.487 20.6001C67.2021 20.2934 66.8636 19.9868 66.5431 19.7162C64.8154 18.2009 64.1386 17.8762 61.7697 17.317C60.1846 16.9382 61.1285 17.5696 59.0981 17.9845C57.887 18.219 55.6606 18.255 54.8947 17.1006C54.5741 16.5955 54.6097 16.2888 54.5919 15.5853C54.0576 15.5312 53.5589 15.4771 52.989 15.441C52.4724 15.4229 51.9559 15.1163 51.5641 15.1524C51.3682 17.2809 50.6201 22.1334 50.0502 24.3702C49.9611 24.749 49.6761 25.2721 49.872 25.5608C51.0832 27.4548 52.1518 28.1584 53.8973 29.1324C54.2001 29.3128 54.1289 29.2948 54.4673 29.2226C55.6962 28.9701 56.3196 29.6195 56.8895 30.6477Z" fill="#DACE00"/>
<path fill-rule="evenodd" clip-rule="evenodd" d="M75.1783 28.4288C75.6057 28.3566 76.0154 28.0139 76.4072 27.7794C77.3512 27.2382 79.2748 26.3543 79.916 25.6508C79.8625 25.3802 78.8473 23.883 78.6336 23.5222C77.9924 22.4399 75.1426 17.4251 74.7152 17.1726C74.3411 17.3349 74.2343 17.5694 73.3972 17.7498C71.7229 18.0926 70.3693 16.902 69.3363 16.1444C67.8223 15.026 65.8097 14.5209 63.6902 14.1421C62.5681 13.9436 61.5351 13.6009 60.2883 13.7813C59.2019 13.9436 58.7922 14.7734 57.777 15.1161C57.1714 15.3146 55.9603 15.3146 55.23 15.4048C54.856 15.4408 54.9094 15.6754 54.9273 16.0722C55.0519 18.3451 58.9703 17.9482 60.2527 17.1906C61.0186 16.7396 60.5733 16.7216 61.642 16.9381C62.1941 17.0643 62.675 17.1906 63.1915 17.3349C64.4383 17.6777 64.7411 17.9122 65.7207 18.6337C67.7511 20.0949 67.5908 20.3835 68.6773 21.4117C71.0461 23.5944 71.2599 23.7387 73.4506 26.2641C73.9671 26.8594 74.7864 27.599 75.1783 28.4288Z" fill="#DACE00"/>
<path fill-rule="evenodd" clip-rule="evenodd" d="M57.4757 30.7738C56.9948 30.9362 56.8879 31.1346 56.7632 31.6577C56.692 32.0005 56.4783 32.7581 56.5495 33.0107C56.7988 33.8044 57.6538 34.1471 58.6156 34.1651C59.328 34.1651 59.3102 34.0389 59.4349 33.3895C59.8623 31.4052 58.4196 30.4672 57.4757 30.7738Z" fill="#DACE00"/>
<path fill-rule="evenodd" clip-rule="evenodd" d="M54.5755 29.5654C52.9547 30.0885 53.4534 32.5238 55.7154 32.7042C56.3032 32.7402 56.1785 32.7763 56.3922 31.8563C56.4991 31.4234 56.6772 30.9544 56.4813 30.5756C56.2141 30.0525 55.4482 29.2768 54.5755 29.5654Z" fill="#DACE00"/>
<path fill-rule="evenodd" clip-rule="evenodd" d="M60.2737 32.8848C58.8132 33.877 60.8793 36.1138 62.2686 35.3381C62.3576 35.284 62.5535 35.1217 62.6426 35.0495C62.9988 34.7248 62.6426 34.4181 62.0726 33.8048C61.8055 33.5162 60.8259 32.488 60.2737 32.8848Z" fill="#DACE00"/>
<path fill-rule="evenodd" clip-rule="evenodd" d="M53.2378 30.7381C53.4337 30.0345 53.7009 29.6557 53.7365 29.4212C52.3116 28.7177 51.9198 28.0863 51.4745 29.0063C50.958 30.0526 52.1692 30.7922 53.2378 30.7381Z" fill="#DACE00"/>
<path d="M7.76865 51.311V59H6.99865V55.403H2.82965V59H2.05965V51.311H2.82965V54.765H6.99865V51.311H7.76865ZM13.4805 57.174H9.98247L9.31147 59H8.49747L11.3025 51.41H12.1715L14.9655 59H14.1515L13.4805 57.174ZM13.2495 56.536L11.7315 52.378L10.2135 56.536H13.2495ZM19.7932 59L17.8902 55.788H16.4712V59H15.7012V51.311H18.0112C18.8692 51.311 19.5182 51.5163 19.9582 51.927C20.4056 52.3377 20.6292 52.8767 20.6292 53.544C20.6292 54.1013 20.4679 54.578 20.1452 54.974C19.8299 55.3627 19.3606 55.6157 18.7372 55.733L20.7172 59H19.7932ZM16.4712 55.161H18.0222C18.6236 55.161 19.0746 55.0143 19.3752 54.721C19.6832 54.4277 19.8372 54.0353 19.8372 53.544C19.8372 53.038 19.6906 52.6493 19.3972 52.378C19.1039 52.0993 18.6419 51.96 18.0112 51.96H16.4712V55.161ZM26.5743 53.522C26.5743 54.182 26.358 54.7137 25.9253 55.117C25.4926 55.5203 24.8436 55.722 23.9783 55.722H22.4273V59H21.6573V51.311H23.9783C24.8363 51.311 25.4816 51.5127 25.9143 51.916C26.3543 52.3193 26.5743 52.8547 26.5743 53.522ZM23.9783 55.062C25.181 55.062 25.7823 54.5487 25.7823 53.522C25.7823 53.0087 25.6393 52.62 25.3533 52.356C25.0673 52.092 24.609 51.96 23.9783 51.96H22.4273V55.062H23.9783ZM31.8213 57.174H28.3233L27.6523 59H26.8383L29.6433 51.41H30.5123L33.3063 59H32.4923L31.8213 57.174ZM31.5903 56.536L30.0723 52.378L28.5543 56.536H31.5903ZM40.0146 59.077C39.3033 59.077 38.658 58.912 38.0786 58.582C37.4993 58.2447 37.041 57.779 36.7036 57.185C36.3736 56.5837 36.2086 55.9053 36.2086 55.15C36.2086 54.3947 36.3736 53.72 36.7036 53.126C37.041 52.5247 37.4993 52.059 38.0786 51.729C38.658 51.3917 39.3033 51.223 40.0146 51.223C40.7333 51.223 41.3823 51.3917 41.9616 51.729C42.541 52.059 42.9956 52.5247 43.3256 53.126C43.6556 53.72 43.8206 54.3947 43.8206 55.15C43.8206 55.9053 43.6556 56.5837 43.3256 57.185C42.9956 57.779 42.541 58.2447 41.9616 58.582C41.3823 58.912 40.7333 59.077 40.0146 59.077ZM40.0146 58.406C40.5866 58.406 41.1 58.274 41.5546 58.01C42.0093 57.746 42.3686 57.3683 42.6326 56.877C42.8966 56.3783 43.0286 55.8027 43.0286 55.15C43.0286 54.4973 42.8966 53.9253 42.6326 53.434C42.3686 52.9427 42.0093 52.565 41.5546 52.301C41.1 52.037 40.5866 51.905 40.0146 51.905C39.4426 51.905 38.9293 52.037 38.4746 52.301C38.02 52.565 37.6606 52.9427 37.3966 53.434C37.1326 53.9253 37.0006 54.4973 37.0006 55.15C37.0006 55.8027 37.1326 56.3783 37.3966 56.877C37.6606 57.3683 38.02 57.746 38.4746 58.01C38.9293 58.274 39.4426 58.406 40.0146 58.406ZM44.3776 55.15C44.3776 54.3947 44.5426 53.72 44.8726 53.126C45.2026 52.5247 45.6536 52.059 46.2256 51.729C46.7976 51.3917 47.4356 51.223 48.1396 51.223C48.9976 51.223 49.7309 51.4283 50.3396 51.839C50.9556 52.2423 51.4029 52.8143 51.6816 53.555H50.7796C50.5596 53.0343 50.2222 52.6273 49.7676 52.334C49.3202 52.0407 48.7776 51.894 48.1396 51.894C47.5749 51.894 47.0652 52.026 46.6106 52.29C46.1632 52.554 45.8112 52.9353 45.5546 53.434C45.2979 53.9253 45.1696 54.4973 45.1696 55.15C45.1696 55.8027 45.2979 56.3747 45.5546 56.866C45.8112 57.3573 46.1632 57.735 46.6106 57.999C47.0652 58.263 47.5749 58.395 48.1396 58.395C48.7776 58.395 49.3202 58.252 49.7676 57.966C50.2222 57.6727 50.5596 57.2693 50.7796 56.756H51.6816C51.4029 57.4893 50.9556 58.0577 50.3396 58.461C49.7236 58.8643 48.9902 59.066 48.1396 59.066C47.4356 59.066 46.7976 58.901 46.2256 58.571C45.6536 58.2337 45.2026 57.768 44.8726 57.174C44.5426 56.58 44.3776 55.9053 44.3776 55.15ZM53.4859 51.938V54.809H56.4009V55.447H53.4859V58.362H56.7309V59H52.7159V51.3H56.7309V51.938H53.4859ZM62.2031 57.174H58.7051L58.0341 59H57.2201L60.0251 51.41H60.8941L63.6881 59H62.8741L62.2031 57.174ZM61.9721 56.536L60.4541 52.378L58.9361 56.536H61.9721ZM70.2209 59H69.4509L65.1939 52.532V59H64.4239V51.311H65.1939L69.4509 57.768V51.311H70.2209V59ZM77.5805 55.029C78.0131 55.1097 78.3798 55.3297 78.6805 55.689C78.9811 56.0483 79.1315 56.4663 79.1315 56.943C79.1315 57.3317 79.0325 57.6837 78.8345 57.999C78.6438 58.307 78.3615 58.5527 77.9875 58.736C77.6135 58.912 77.1661 59 76.6455 59H73.9835V51.311H76.5685C77.3458 51.311 77.9361 51.4907 78.3395 51.85C78.7501 52.2093 78.9555 52.675 78.9555 53.247C78.9555 53.7237 78.8271 54.1123 78.5705 54.413C78.3138 54.7063 77.9838 54.9117 77.5805 55.029ZM74.7535 54.71H76.5465C77.0671 54.71 77.4668 54.589 77.7455 54.347C78.0315 54.0977 78.1745 53.7567 78.1745 53.324C78.1745 52.8987 78.0315 52.565 77.7455 52.323C77.4668 52.081 77.0561 51.96 76.5135 51.96H74.7535V54.71ZM76.5905 58.351C77.1478 58.351 77.5805 58.219 77.8885 57.955C78.2038 57.691 78.3615 57.328 78.3615 56.866C78.3615 56.404 78.1965 56.0373 77.8665 55.766C77.5438 55.4873 77.1075 55.348 76.5575 55.348H74.7535V58.351H76.5905ZM80.8169 51.938V54.809H83.7319V55.447H80.8169V58.362H84.0619V59H80.0469V51.3H84.0619V51.938H80.8169ZM89.1712 59L87.2682 55.788H85.8492V59H85.0792V51.311H87.3892C88.2472 51.311 88.8962 51.5163 89.3362 51.927C89.7835 52.3377 90.0072 52.8767 90.0072 53.544C90.0072 54.1013 89.8458 54.578 89.5232 54.974C89.2078 55.3627 88.7385 55.6157 88.1152 55.733L90.0952 59H89.1712ZM85.8492 55.161H87.4002C88.0015 55.161 88.4525 55.0143 88.7532 54.721C89.0612 54.4277 89.2152 54.0353 89.2152 53.544C89.2152 53.038 89.0685 52.6493 88.7752 52.378C88.4818 52.0993 88.0198 51.96 87.3892 51.96H85.8492V55.161ZM93.3672 59.077C92.8612 59.077 92.4139 58.989 92.0252 58.813C91.6439 58.637 91.3432 58.3913 91.1232 58.076C90.9032 57.7607 90.7859 57.4087 90.7712 57.02H91.5852C91.6219 57.394 91.7869 57.724 92.0802 58.01C92.3736 58.2887 92.8026 58.428 93.3672 58.428C93.8879 58.428 94.2986 58.296 94.5992 58.032C94.9072 57.7607 95.0612 57.4197 95.0612 57.009C95.0612 56.679 94.9769 56.415 94.8082 56.217C94.6396 56.0117 94.4306 55.8613 94.1812 55.766C93.9319 55.6633 93.5872 55.5533 93.1472 55.436C92.6339 55.2967 92.2269 55.161 91.9262 55.029C91.6256 54.897 91.3689 54.6917 91.1562 54.413C90.9436 54.1343 90.8372 53.7567 90.8372 53.28C90.8372 52.884 90.9399 52.532 91.1452 52.224C91.3506 51.9087 91.6402 51.663 92.0142 51.487C92.3882 51.311 92.8172 51.223 93.3012 51.223C94.0126 51.223 94.5846 51.399 95.0172 51.751C95.4572 52.0957 95.7102 52.543 95.7762 53.093H94.9402C94.8889 52.7777 94.7166 52.499 94.4232 52.257C94.1299 52.0077 93.7339 51.883 93.2352 51.883C92.7732 51.883 92.3882 52.0077 92.0802 52.257C91.7722 52.499 91.6182 52.8327 91.6182 53.258C91.6182 53.5807 91.7026 53.841 91.8712 54.039C92.0399 54.237 92.2489 54.3873 92.4982 54.49C92.7549 54.5927 93.0996 54.7027 93.5322 54.82C94.0309 54.9593 94.4342 55.0987 94.7422 55.238C95.0502 55.37 95.3106 55.5753 95.5232 55.854C95.7359 56.1327 95.8422 56.5067 95.8422 56.976C95.8422 57.3353 95.7469 57.6763 95.5562 57.999C95.3656 58.3217 95.0832 58.582 94.7092 58.78C94.3352 58.978 93.8879 59.077 93.3672 59.077ZM101.285 57.174H97.7871L97.1161 59H96.3021L99.1071 51.41H99.9761L102.77 59H101.956L101.285 57.174ZM101.054 56.536L99.5361 52.378L98.0181 56.536H101.054ZM111.019 51.41V59H110.249V52.939L107.543 59H106.982L104.276 52.961V59H103.506V51.41H104.32L107.257 57.988L110.194 51.41H111.019ZM116.721 57.174H113.223L112.552 59H111.738L114.543 51.41H115.412L118.206 59H117.392L116.721 57.174ZM116.49 56.536L114.972 52.378L113.454 56.536H116.49Z" fill="white"/>
</g>
<defs>
<clipPath id="clip0_5211_19949">
<rect width="120.26" height="59.1854" fill="white"/>
</clipPath>
</defs>
</svg>
