<svg width="285" height="64" viewBox="0 0 285 64" fill="none" xmlns="http://www.w3.org/2000/svg">
<path d="M46.2 10.1004C45.1 14.2504 43.35 20.1004 41.05 27.7004C40.85 28.3504 41.4 29.0004 42.05 28.9504C42.8 28.9004 43.5 28.8504 44.15 28.8504C44.6 28.8004 45.05 29.1504 45.1 29.6504C45.2 30.2004 44.8 30.6504 44.25 30.7004C43.25 30.7504 42.05 30.8004 40.75 30.9004C40.35 30.9504 40 31.2504 39.85 31.6004C39.7 32.1504 39.55 32.7004 39.35 33.2504C37.5 39.3004 36.35 43.9004 35.6 47.2504C35.55 47.4004 35.55 47.5004 35.65 47.6504C36.3 49.0004 36.7 50.4004 36.75 51.8504C36.85 53.8004 36.3 55.8004 35.25 57.8504C35.05 58.2004 34.45 59.3004 33.6 59.3004C33.45 59.3004 33.3 59.2504 33.15 59.2004C32.3 58.8504 32.2 57.7004 32.2 56.5504C32.25 55.3504 32.45 53.7004 32.8 51.6504C32.95 50.6504 33.2 49.4504 33.5 47.9504C33.55 47.8504 33.55 47.7004 33.45 47.5504C31.15 44.0504 26.25 40.9004 19.55 38.7504C17.8 38.2004 16 37.7004 14.2 37.3004C13.8 37.2504 13.4 37.4004 13.2 37.7504C9.85 42.8504 6.9 47.9004 4.45 52.7504C4.25 53.2004 3.7 53.4004 3.25 53.2004C2.75 53.0004 2.55 52.4504 2.8 51.9504C5.05 47.5004 7.75 42.8004 10.75 38.0504C11.15 37.5004 10.8 36.7004 10.1 36.6004C6.9 36.2004 3.8 36.0504 1 36.2504C0.5 36.2504 0.0500001 35.9004 7.45058e-09 35.3504C7.45058e-09 34.9004 0.35 34.5004 0.8 34.4004C4.2 33.6504 9.05 32.8504 14.4 32.1004C14.65 32.0504 14.9 31.9004 15.05 31.7004C18.7 26.4004 22.7 21.2004 26.85 16.3504C31 11.5004 34.95 7.40039 38.3 4.55039C41.95 1.40039 44.55 0.000387311 46.2 0.300389C46.65 0.350389 47 0.600389 47.25 1.00039C47.85 1.95039 47.85 3.75039 46.2 10.1004ZM13.1 34.5004C13.2 34.3504 13.1 34.1504 12.95 34.2004C12.25 34.3004 11.6 34.4004 10.95 34.5004C10.75 34.5004 10.75 34.8504 10.95 34.8504C11.35 34.9004 11.7 34.9504 12.05 35.0504C12.45 35.1004 12.8 34.9504 13.05 34.6504C13.05 34.6004 13.1 34.5504 13.1 34.5004ZM34.45 55.0004C34.75 54.0504 34.9 53.1004 34.9 52.2004C34.9 52.1004 34.9 52.0004 34.9 51.9004C34.9 51.7504 34.85 51.7004 34.75 51.7004C34.7 51.7004 34.65 51.7504 34.65 51.9004C34.4 53.1504 34.25 54.1504 34.2 54.9504C34.15 55.0504 34.4 55.1004 34.45 55.0004ZM37.65 32.5504C37.85 31.8504 37.3 31.2004 36.65 31.3004C30.65 31.8504 23.15 32.7504 16.3 33.7004C16 33.7504 15.75 33.9004 15.6 34.1004C15.55 34.2004 15.5 34.3004 15.45 34.3504C15.05 34.9004 15.35 35.6504 16 35.8504C17.4 36.1504 18.8 36.5504 20.15 37.0004C25.95 38.8504 30.6 41.5004 33.45 44.5504C33.75 44.8504 34.25 44.7504 34.35 44.3004C35.15 41.2004 36.15 37.4004 37.6 32.7004L37.65 32.5504ZM38.85 28.6004C41.35 20.4004 43.2 14.1004 44.4 9.70039C45.05 7.20039 45.45 5.35039 45.65 4.05039C45.8 2.85039 45.75 2.30039 45.7 2.10039C45.2 2.15039 43.5 2.55039 39.5 5.95039C36.25 8.75039 32.35 12.7504 28.25 17.5504C24.9 21.5004 21.65 25.6504 18.6 29.9004C18.1 30.5504 18.65 31.5004 19.5 31.4004C26 30.5004 32.7 29.7504 38 29.3004C38.4 29.2504 38.75 29.0004 38.85 28.6004ZM44.3156 44.4504C44.0156 44.4504 43.6656 44.3004 43.4656 44.0004C43.0656 43.4504 43.1656 42.5004 43.7656 41.2004C44.1656 40.3004 44.9656 38.9504 46.4156 37.3504C46.7656 37.0004 47.4156 37.0004 47.7656 37.4004C48.1156 37.7504 48.0656 38.3004 47.7656 38.6504C47.3656 39.1004 47.0156 39.5004 46.7156 39.8504C46.4656 40.2004 46.8656 40.6504 47.2656 40.4504C48.8156 39.4504 50.9656 38.3504 54.0156 37.6504C54.3656 37.5504 55.3156 37.3504 55.9156 38.0004C56.5156 38.7004 56.1656 39.5504 55.8156 40.4004C55.6656 40.8004 55.3156 41.7004 55.4656 41.9004C55.4656 41.9004 55.6656 42.2004 56.8656 42.1504C60.0156 42.1504 66.7156 39.9004 69.9156 38.3504C70.4156 38.1004 71.0156 38.3504 71.2156 38.8504C71.3656 39.3004 71.1656 39.8504 70.7156 40.0504C67.2656 41.7004 60.3156 44.0004 56.8656 44.0004C55.4156 44.0504 54.4656 43.7004 53.9656 42.9504C53.5656 42.4004 53.5156 41.7504 53.6656 41.1504C53.7156 40.9004 53.7656 40.6504 53.8656 40.4004C53.9656 40.0004 53.6156 39.6504 53.2656 39.7504C49.7656 40.7504 47.7656 42.2504 46.3656 43.3004C45.7656 43.7504 45.2656 44.1504 44.7656 44.3504C44.6156 44.4004 44.4656 44.4504 44.3156 44.4504ZM69.0309 45.8004C68.5809 45.8004 68.1309 45.6504 67.8309 45.3004C67.3809 44.9004 66.9809 44.0004 67.6309 42.1004C68.3809 39.9504 70.5309 36.8004 72.8309 36.6504C73.4309 36.6004 74.2309 36.7504 74.9309 37.4504C77.5809 33.7504 80.7809 28.4504 84.5809 21.7504C85.0309 20.9004 85.5309 20.0004 86.0809 19.0504C86.3309 18.6004 86.8809 18.4504 87.2809 18.6504C87.7809 18.9004 87.9809 19.4504 87.7309 19.9504C87.1809 20.8504 86.6809 21.7504 86.2309 22.6004C83.2309 28.0004 81.2309 32.3004 80.1809 35.4504C78.9809 39.2004 79.4309 40.4504 79.7809 40.9004C80.8309 42.1004 84.9809 40.4504 87.7309 39.3004C88.6309 38.9504 89.5309 38.6004 90.2809 38.3004C90.7809 38.1504 91.2809 38.3504 91.4809 38.8004C91.6809 39.3004 91.4309 39.9004 90.9309 40.0504C90.1809 40.3504 89.3309 40.6504 88.4309 41.0504C84.6309 42.6004 80.3309 44.3004 78.3809 42.1004C77.6809 41.3004 77.4309 40.1504 77.5809 38.5504C77.6309 38.0504 76.9809 37.8004 76.6809 38.2504C72.4809 44.3504 70.5309 45.6004 69.3809 45.7504C69.2309 45.8004 69.1309 45.8004 69.0309 45.8004ZM72.9809 38.5004C72.8309 38.5004 72.6309 38.5504 72.5309 38.6004C71.7309 39.0004 70.7309 40.0504 69.9809 41.3504C69.7309 41.9004 69.5309 42.3504 69.3809 42.7504C69.2309 43.2004 69.7809 43.6004 70.1309 43.3004C70.8309 42.7004 71.8309 41.6504 73.3809 39.7004C73.4309 39.6004 73.4309 39.5504 73.4809 39.5004C73.8309 39.1004 73.5309 38.5004 73.0309 38.5004H72.9809ZM90.8457 45.8004C89.5457 45.8004 88.9457 45.2504 88.6457 44.7504C87.5957 43.2004 88.9957 40.5004 90.0957 38.4004C90.3957 37.8004 90.7457 37.1504 90.7957 36.9004C90.9457 36.4004 91.4457 36.1504 91.9457 36.2504C92.4457 36.4004 92.6957 36.9004 92.5957 37.4004C92.4457 37.8504 92.1457 38.4504 91.7457 39.2504C91.2957 40.1004 90.7457 41.1504 90.4457 42.1004C89.9957 43.3504 90.1457 43.7504 90.1957 43.7504C90.2457 43.8504 90.4457 43.9504 90.9457 43.9504C92.2957 43.9004 94.3957 42.7504 96.5957 41.5504C98.7957 40.3504 101.296 39.0004 103.846 38.3004C104.296 38.1504 104.846 38.4504 104.946 38.9504C105.096 39.4504 104.796 39.9504 104.346 40.1004C101.996 40.7504 99.5957 42.0504 97.4957 43.2004C94.9957 44.5504 92.8457 45.7004 90.9957 45.8004C90.9457 45.8004 90.8957 45.8004 90.8457 45.8004ZM92.2457 32.9504C91.9457 32.9504 91.6457 32.8004 91.4957 32.5504C91.1957 32.1004 91.3457 31.5004 91.7457 31.2504C91.8457 31.2004 92.0957 31.0004 92.2957 30.8504C93.5957 29.8504 94.1957 29.4004 94.7957 29.4004C95.3457 29.4004 95.7457 29.8504 95.7457 30.3504C95.7457 30.8004 95.3957 31.2004 94.8957 31.2504C94.5957 31.4004 93.7957 32.0504 93.4457 32.3004C93.1457 32.5004 92.9457 32.7004 92.7957 32.8004C92.5957 32.9004 92.4457 32.9504 92.2457 32.9504ZM123.36 63.7504C123.31 63.7504 123.31 63.7504 123.26 63.7504C122.11 63.7004 121.21 63.3504 120.56 62.6504C119.91 61.9504 119.66 60.9504 119.76 59.6504C120.06 56.2504 123.41 50.2504 131.96 43.6004C136.11 40.3504 139.66 38.8504 141.96 38.1004C143.86 37.5004 145.61 37.2504 146.96 37.3504C147.56 37.4004 148.26 37.5004 148.86 37.8004C149.31 38.0004 149.86 37.8504 150.11 37.4004C152.96 32.4004 154.71 27.8004 155.76 24.1504C158.41 15.2504 157.96 8.50039 156.46 6.00039C155.56 4.55039 153.86 3.80039 151.66 3.90039C148.56 4.00039 144.86 5.75039 141.31 8.75039C138.46 11.2004 135.66 14.5004 133.11 18.4004C132.96 18.6004 132.96 18.9004 133.01 19.1504C133.06 19.3504 133.06 19.5504 133.01 19.7004C132.51 21.1504 131.56 22.5004 130.86 23.4004C129.46 25.2504 128.96 25.3004 128.76 25.3504C128.41 25.4004 128.11 25.2504 127.86 24.9504C127.66 24.6504 127.66 24.2504 127.81 23.9504C131.41 16.8004 135.56 11.2504 140.11 7.35039C144.01 4.05039 148.06 2.15039 151.56 2.00039C154.46 1.90039 156.81 3.00039 158.06 5.05039C159.06 6.70039 159.61 9.40039 159.56 12.8004C159.51 16.3504 158.81 20.4504 157.56 24.7004C156.11 29.5504 154.01 34.4004 151.31 39.1004C151.11 39.4004 150.91 39.7504 150.71 40.0504C150.66 40.2004 150.61 40.3504 150.56 40.5004C150.56 40.6004 150.56 40.6504 150.56 40.7004C150.51 41.0504 150.31 41.3504 150.01 41.5004C149.86 41.5504 149.71 41.7004 149.61 41.8504C146.81 46.2004 143.51 50.3004 139.76 54.1004C135.11 58.8504 127.71 63.7504 123.36 63.7504ZM146.41 39.2004C143.51 39.2004 138.46 40.9004 133.11 45.0504C125.01 51.3504 121.86 56.9504 121.61 59.8504C121.56 60.5504 121.66 61.1004 121.96 61.4004C122.21 61.7004 122.66 61.9004 123.31 61.9004C126.61 61.9504 133.56 57.8004 138.46 52.8004C142.46 48.7504 145.61 44.6504 148.11 40.7504C148.46 40.2004 148.16 39.4504 147.51 39.3004C147.16 39.2004 146.76 39.2004 146.41 39.2004ZM171.592 44.5004C170.592 44.5004 169.842 44.2004 169.342 43.5504C168.642 42.6504 168.692 41.3004 168.942 40.0504C169.042 39.6504 168.592 39.3004 168.192 39.5504C167.592 39.9504 166.842 40.4504 166.492 40.6504C164.242 42.1004 161.742 43.5004 159.842 43.4504C158.842 43.4504 158.392 42.9004 158.192 42.6004C157.492 41.4004 158.342 39.5504 159.442 37.4504C159.642 37.1004 159.842 36.6504 159.892 36.5004C160.042 36.0004 160.542 35.7004 161.092 35.8504C161.542 36.0004 161.842 36.5504 161.692 37.0504C161.592 37.3004 161.392 37.6504 161.092 38.3004C160.742 38.9504 160.342 39.7004 160.092 40.4004C160.042 40.4504 160.042 40.5004 160.042 40.5504C159.842 41.0504 160.292 41.6004 160.842 41.4504C161.092 41.4004 161.342 41.3004 161.592 41.2004C163.392 40.5004 165.592 39.0504 167.242 37.9504C169.242 36.6504 169.942 36.2004 170.592 36.2504C170.892 36.2504 171.192 36.4004 171.392 36.6504C171.742 37.1504 171.542 37.7004 171.242 38.8004C170.942 39.7504 170.292 41.7504 170.792 42.4004C170.992 42.6504 171.392 42.6504 171.692 42.6504C173.242 42.6004 175.242 41.7504 177.542 40.7004C179.442 39.9004 181.642 38.9504 183.942 38.3004C184.442 38.1504 184.992 38.4504 185.092 39.0004C185.192 39.5004 184.892 39.9504 184.392 40.1004C182.242 40.7004 180.142 41.6004 178.292 42.4004C175.792 43.5004 173.642 44.4504 171.742 44.5004C171.692 44.5004 171.642 44.5004 171.592 44.5004ZM182.499 44.4504C182.199 44.4504 181.849 44.3004 181.649 44.0004C181.249 43.4504 181.349 42.5004 181.949 41.2004C182.349 40.3004 183.149 38.9504 184.599 37.3504C184.949 37.0004 185.599 37.0004 185.949 37.4004C186.299 37.7504 186.249 38.3004 185.949 38.6504C185.549 39.1004 185.199 39.5004 184.899 39.8504C184.649 40.2004 185.049 40.6504 185.449 40.4504C186.999 39.4504 189.149 38.3504 192.199 37.6504C192.549 37.5504 193.499 37.3504 194.099 38.0004C194.699 38.7004 194.349 39.5504 193.999 40.4004C193.849 40.8004 193.499 41.7004 193.649 41.9004C193.649 41.9004 193.849 42.2004 195.049 42.1504C198.199 42.1504 204.899 39.9004 208.099 38.3504C208.599 38.1004 209.199 38.3504 209.399 38.8504C209.549 39.3004 209.349 39.8504 208.899 40.0504C205.449 41.7004 198.499 44.0004 195.049 44.0004C193.599 44.0504 192.649 43.7004 192.149 42.9504C191.749 42.4004 191.699 41.7504 191.849 41.1504C191.899 40.9004 191.949 40.6504 192.049 40.4004C192.149 40.0004 191.799 39.6504 191.449 39.7504C187.949 40.7504 185.949 42.2504 184.549 43.3004C183.949 43.7504 183.449 44.1504 182.949 44.3504C182.799 44.4004 182.649 44.4504 182.499 44.4504ZM207.314 44.5004C207.164 44.5004 207.064 44.4504 206.914 44.4504C205.914 44.2504 205.564 43.6504 205.414 43.3004C204.964 41.9004 206.414 40.0504 207.314 39.1004C209.864 36.3504 212.464 35.4004 213.864 35.6504C214.414 35.7504 214.714 36.2004 214.664 36.7004C214.564 37.2004 214.064 37.5504 213.564 37.4504C212.964 37.3504 210.914 37.9004 208.664 40.3504C208.414 40.6504 208.114 40.9504 207.914 41.2504C207.364 42.1004 207.964 42.5504 208.714 42.1504C208.914 42.0504 209.064 42.0004 209.264 41.9004C209.464 41.7504 209.664 41.6504 209.814 41.5504C210.064 41.4004 210.264 41.3004 210.464 41.1504C210.714 41.0004 210.964 40.8004 211.214 40.6504C211.314 40.6004 211.414 40.5004 211.564 40.4504C213.414 39.1004 215.064 37.7504 215.264 37.5004C215.564 37.1504 216.164 37.1004 216.564 37.4004C216.864 37.7004 216.964 38.2004 216.764 38.5504C216.414 39.2004 216.464 39.7004 216.814 40.1004C217.064 40.4004 218.014 41.0504 220.564 40.8504C222.914 40.6504 225.914 39.8004 229.314 38.3504C229.764 38.1004 230.364 38.3504 230.514 38.8504C230.714 39.3504 230.464 39.8504 230.014 40.0504C226.414 41.6004 223.264 42.5004 220.664 42.7004C218.264 42.9004 216.464 42.4004 215.464 41.3504C215.314 41.2504 215.214 41.1004 215.164 41.0004C214.914 40.6504 214.464 40.5504 214.164 40.8004C213.664 41.2004 213.114 41.6004 212.614 41.9504C209.564 44.0504 208.114 44.5004 207.314 44.5004ZM250.105 38.7504C250.355 39.1504 250.205 39.7004 249.805 40.0004C247.205 41.6504 243.805 42.9504 239.655 43.7504C236.305 44.4504 233.405 44.6004 232.205 44.6004C230.005 44.6004 229.055 43.8004 228.605 43.1504C228.005 42.1504 228.055 40.8004 228.855 39.1504C229.005 38.9004 229.155 38.6004 229.305 38.3504C229.355 38.3004 229.355 38.2504 229.405 38.2004C231.005 36.0004 233.955 34.3504 235.355 34.8004C236.005 35.0004 236.405 35.6004 236.255 36.3004C236.105 37.3004 235.405 38.2504 234.405 38.9504C233.705 39.3504 232.705 39.8004 231.205 39.8004C230.805 39.8004 230.455 40.0504 230.305 40.4504C230.255 40.6004 230.205 40.7504 230.155 40.9004C230.005 41.4504 230.005 41.8504 230.155 42.1504C230.405 42.5504 231.155 42.7504 232.205 42.7504C234.805 42.7504 243.405 41.9504 248.805 38.4004C249.255 38.1004 249.855 38.2504 250.105 38.7504ZM232.555 37.3504C232.205 37.6504 232.155 37.9504 232.455 37.9504C232.805 37.9504 233.355 37.6504 233.705 37.3504C234.055 37.0004 234.105 36.7504 233.755 36.7504C233.455 36.7504 232.905 37.0004 232.555 37.3504ZM247.986 45.8004C247.536 45.8004 247.086 45.6504 246.786 45.3004C246.336 44.9004 245.936 44.0004 246.586 42.1004C247.336 39.9504 249.486 36.8004 251.786 36.6504C252.386 36.6004 253.186 36.7504 253.886 37.4504C256.536 33.7504 259.736 28.4504 263.536 21.7504C263.986 20.9004 264.486 20.0004 265.036 19.0504C265.286 18.6004 265.836 18.4504 266.236 18.6504C266.736 18.9004 266.936 19.4504 266.686 19.9504C266.136 20.8504 265.636 21.7504 265.186 22.6004C262.186 28.0004 260.186 32.3004 259.136 35.4504C257.936 39.2004 258.386 40.4504 258.736 40.9004C259.786 42.1004 263.936 40.4504 266.686 39.3004C267.586 38.9504 268.486 38.6004 269.236 38.3004C269.736 38.1504 270.236 38.3504 270.436 38.8004C270.636 39.3004 270.386 39.9004 269.886 40.0504C269.136 40.3504 268.286 40.6504 267.386 41.0504C263.586 42.6004 259.286 44.3004 257.336 42.1004C256.636 41.3004 256.386 40.1504 256.536 38.5504C256.586 38.0504 255.936 37.8004 255.636 38.2504C251.436 44.3504 249.486 45.6004 248.336 45.7504C248.186 45.8004 248.086 45.8004 247.986 45.8004ZM251.936 38.5004C251.786 38.5004 251.586 38.5504 251.486 38.6004C250.686 39.0004 249.686 40.0504 248.936 41.3504C248.686 41.9004 248.486 42.3504 248.336 42.7504C248.186 43.2004 248.736 43.6004 249.086 43.3004C249.786 42.7004 250.786 41.6504 252.336 39.7004C252.386 39.6004 252.386 39.5504 252.436 39.5004C252.786 39.1004 252.486 38.5004 251.986 38.5004H251.936ZM269.801 45.8004C268.501 45.8004 267.901 45.2504 267.601 44.7504C266.551 43.2004 267.951 40.5004 269.051 38.4004C269.351 37.8004 269.701 37.1504 269.751 36.9004C269.901 36.4004 270.401 36.1504 270.901 36.2504C271.401 36.4004 271.651 36.9004 271.551 37.4004C271.401 37.8504 271.101 38.4504 270.701 39.2504C270.251 40.1004 269.701 41.1504 269.401 42.1004C268.951 43.3504 269.101 43.7504 269.151 43.7504C269.201 43.8504 269.401 43.9504 269.901 43.9504C271.251 43.9004 273.351 42.7504 275.551 41.5504C277.751 40.3504 280.251 39.0004 282.801 38.3004C283.251 38.1504 283.801 38.4504 283.901 38.9504C284.051 39.4504 283.751 39.9504 283.301 40.1004C280.951 40.7504 278.551 42.0504 276.451 43.2004C273.951 44.5504 271.801 45.7004 269.951 45.8004C269.901 45.8004 269.851 45.8004 269.801 45.8004ZM271.201 32.9504C270.901 32.9504 270.601 32.8004 270.451 32.5504C270.151 32.1004 270.301 31.5004 270.701 31.2504C270.801 31.2004 271.051 31.0004 271.251 30.8504C272.551 29.8504 273.151 29.4004 273.751 29.4004C274.301 29.4004 274.701 29.8504 274.701 30.3504C274.701 30.8004 274.351 31.2004 273.851 31.2504C273.551 31.4004 272.751 32.0504 272.401 32.3004C272.101 32.5004 271.901 32.7004 271.751 32.8004C271.551 32.9004 271.401 32.9504 271.201 32.9504Z" fill="#5C5C5C"/>
</svg>
